<?xml version="1.0" encoding="UTF-8" standalone="no"?>
<!DOCTYPE svg PUBLIC "-//W3C//DTD SVG 1.1//EN"
 "http://www.w3.org/Graphics/SVG/1.1/DTD/svg11.dtd">
<!-- Generated by graphviz version 14.1.3 (20260303.0454)
 -->
<!-- Title: ZhouUML Pages: 1 -->
<svg width="713pt" height="1035pt"
 viewBox="0.00 0.00 713.00 1035.00" xmlns="http://www.w3.org/2000/svg" xmlns:xlink="http://www.w3.org/1999/xlink">
<g id="graph0" class="graph" transform="scale(1 1) rotate(0) translate(18 1016.56)">
<title>ZhouUML</title>
<polygon fill="white" stroke="none" points="-18,18 -18,-1016.56 695.02,-1016.56 695.02,18 -18,18"/>
<!-- Serializable -->
<g id="node1" class="node">
<title>Serializable</title>
<path fill="#e0f2fe" stroke="#475569" d="M43.21,-857.66C43.21,-857.66 205.15,-857.66 205.15,-857.66 211.15,-857.66 217.15,-863.66 217.15,-869.66 217.15,-869.66 217.15,-923.42 217.15,-923.42 217.15,-929.42 211.15,-935.42 205.15,-935.42 205.15,-935.42 43.21,-935.42 43.21,-935.42 37.21,-935.42 31.21,-929.42 31.21,-923.42 31.21,-923.42 31.21,-869.66 31.21,-869.66 31.21,-863.66 37.21,-857.66 43.21,-857.66"/>
<text xml:space="preserve" text-anchor="middle" x="124.18" y="-919.58" font-family="Consolas" font-size="12.00">Serializable</text>
<text xml:space="preserve" text-anchor="middle" x="124.18" y="-905.18" font-family="Consolas" font-size="12.00">&lt;interface&gt;</text>
<polyline fill="none" stroke="#475569" points="31.21,-896.54 217.15,-896.54"/>
<text xml:space="preserve" text-anchor="start" x="38.41" y="-880.7" font-family="Consolas" font-size="12.00">+ serialize() : string</text>
<text xml:space="preserve" text-anchor="start" x="38.41" y="-866.3" font-family="Consolas" font-size="12.00">+ deserialize(data) : void</text>
</g>
<!-- Author -->
<g id="node2" class="node">
<title>Author</title>
<path fill="#f8fafc" stroke="#475569" d="M408.41,-0.5C408.41,-0.5 609.94,-0.5 609.94,-0.5 615.94,-0.5 621.94,-6.5 621.94,-12.5 621.94,-12.5 621.94,-162.74 621.94,-162.74 621.94,-168.74 615.94,-174.74 609.94,-174.74 609.94,-174.74 408.41,-174.74 408.41,-174.74 402.41,-174.74 396.41,-168.74 396.41,-162.74 396.41,-162.74 396.41,-12.5 396.41,-12.5 396.41,-6.5 402.41,-0.5 408.41,-0.5"/>
<text xml:space="preserve" text-anchor="middle" x="509.18" y="-158.9" font-family="Consolas" font-size="12.00">Author</text>
<polyline fill="none" stroke="#475569" points="396.41,-150.26 621.94,-150.26"/>
<text xml:space="preserve" text-anchor="start" x="403.61" y="-134.42" font-family="Consolas" font-size="12.00">&#45; id : IdType</text>
<text xml:space="preserve" text-anchor="start" x="403.61" y="-120.02" font-family="Consolas" font-size="12.00">&#45; name : string</text>
<text xml:space="preserve" text-anchor="start" x="403.61" y="-105.62" font-family="Consolas" font-size="12.00">&#45; gender : string</text>
<text xml:space="preserve" text-anchor="start" x="403.61" y="-91.22" font-family="Consolas" font-size="12.00">&#45; affiliation : string</text>
<text xml:space="preserve" text-anchor="start" x="403.61" y="-76.82" font-family="Consolas" font-size="12.00">&#45; email : string</text>
<text xml:space="preserve" text-anchor="start" x="403.61" y="-62.42" font-family="Consolas" font-size="12.00">&#45; researchAreas : vector&lt;string&gt;</text>
<polyline fill="none" stroke="#475569" points="396.41,-53.78 621.94,-53.78"/>
<text xml:space="preserve" text-anchor="start" x="403.61" y="-37.94" font-family="Consolas" font-size="12.00">+ getters/setters</text>
<text xml:space="preserve" text-anchor="start" x="403.61" y="-23.54" font-family="Consolas" font-size="12.00">+ serialize() : string</text>
<text xml:space="preserve" text-anchor="start" x="403.61" y="-9.14" font-family="Consolas" font-size="12.00">+ deserialize(data) : void</text>
</g>
<!-- Serializable&#45;&gt;Author -->
<g id="edge1" class="edge">
<title>Serializable&#45;&gt;Author</title>
<path fill="none" stroke="#64748b" stroke-dasharray="5,2" d="M217.59,-858.61C323.85,-816.16 483.87,-750.75 492.18,-738.52 551.65,-650.99 533.12,-343 518.95,-184.48"/>
<polygon fill="none" stroke="#64748b" points="521.75,-184.41 518.24,-176.69 516.17,-184.91 521.75,-184.41"/>
</g>
<!-- Paper -->
<g id="node3" class="node">
<title>Paper</title>
<path fill="#f8fafc" stroke="#475569" d="M138.41,-231.74C138.41,-231.74 339.94,-231.74 339.94,-231.74 345.94,-231.74 351.94,-237.74 351.94,-243.74 351.94,-243.74 351.94,-480.38 351.94,-480.38 351.94,-486.38 345.94,-492.38 339.94,-492.38 339.94,-492.38 138.41,-492.38 138.41,-492.38 132.41,-492.38 126.41,-486.38 126.41,-480.38 126.41,-480.38 126.41,-243.74 126.41,-243.74 126.41,-237.74 132.41,-231.74 138.41,-231.74"/>
<text xml:space="preserve" text-anchor="middle" x="239.18" y="-476.54" font-family="Consolas" font-size="12.00">Paper</text>
<polyline fill="none" stroke="#475569" points="126.41,-467.9 351.94,-467.9"/>
<text xml:space="preserve" text-anchor="start" x="133.61" y="-452.06" font-family="Consolas" font-size="12.00">&#45; id : IdType</text>
<text xml:space="preserve" text-anchor="start" x="133.61" y="-437.66" font-family="Consolas" font-size="12.00">&#45; code : string</text>
<text xml:space="preserve" text-anchor="start" x="133.61" y="-423.26" font-family="Consolas" font-size="12.00">&#45; title : string</text>
<text xml:space="preserve" text-anchor="start" x="133.61" y="-408.86" font-family="Consolas" font-size="12.00">&#45; keywords : vector&lt;string&gt;</text>
<text xml:space="preserve" text-anchor="start" x="133.61" y="-394.46" font-family="Consolas" font-size="12.00">&#45; abstract : string</text>
<text xml:space="preserve" text-anchor="start" x="133.61" y="-380.06" font-family="Consolas" font-size="12.00">&#45; publishDate : string</text>
<text xml:space="preserve" text-anchor="start" x="133.61" y="-365.66" font-family="Consolas" font-size="12.00">&#45; sourceId : IdType</text>
<text xml:space="preserve" text-anchor="start" x="133.61" y="-351.26" font-family="Consolas" font-size="12.00">&#45; authorIds : vector&lt;IdType&gt;</text>
<text xml:space="preserve" text-anchor="start" x="133.61" y="-336.86" font-family="Consolas" font-size="12.00">&#45; attachmentIds : vector&lt;IdType&gt;</text>
<text xml:space="preserve" text-anchor="start" x="133.61" y="-322.46" font-family="Consolas" font-size="12.00">&#45; filePath : string</text>
<text xml:space="preserve" text-anchor="start" x="133.61" y="-308.06" font-family="Consolas" font-size="12.00">&#45; uploadTime : string</text>
<polyline fill="none" stroke="#475569" points="126.41,-299.42 351.94,-299.42"/>
<text xml:space="preserve" text-anchor="start" x="133.61" y="-283.58" font-family="Consolas" font-size="12.00">+ addAuthorId(id)</text>
<text xml:space="preserve" text-anchor="start" x="133.61" y="-269.18" font-family="Consolas" font-size="12.00">+ addAttachmentId(id)</text>
<text xml:space="preserve" text-anchor="start" x="133.61" y="-254.78" font-family="Consolas" font-size="12.00">+ serialize() : string</text>
<text xml:space="preserve" text-anchor="start" x="133.61" y="-240.38" font-family="Consolas" font-size="12.00">+ deserialize(data) : void</text>
</g>
<!-- Serializable&#45;&gt;Paper -->
<g id="edge2" class="edge">
<title>Serializable&#45;&gt;Paper</title>
<path fill="none" stroke="#64748b" stroke-dasharray="5,2" d="M110.75,-857.36C89.99,-792.14 56.14,-655.95 93.18,-548.88 99.95,-529.29 109.74,-510.19 121.09,-492.15"/>
<polygon fill="none" stroke="#64748b" points="123.23,-494 125.23,-485.76 118.53,-490.96 123.23,-494"/>
</g>
<!-- Attachment -->
<g id="node4" class="node">
<title>Attachment</title>
<path fill="#f8fafc" stroke="#475569" d="M183.21,-7.7C183.21,-7.7 345.15,-7.7 345.15,-7.7 351.15,-7.7 357.15,-13.7 357.15,-19.7 357.15,-19.7 357.15,-155.54 357.15,-155.54 357.15,-161.54 351.15,-167.54 345.15,-167.54 345.15,-167.54 183.21,-167.54 183.21,-167.54 177.21,-167.54 171.21,-161.54 171.21,-155.54 171.21,-155.54 171.21,-19.7 171.21,-19.7 171.21,-13.7 177.21,-7.7 183.21,-7.7"/>
<text xml:space="preserve" text-anchor="middle" x="264.18" y="-151.7" font-family="Consolas" font-size="12.00">Attachment</text>
<polyline fill="none" stroke="#475569" points="171.21,-143.06 357.15,-143.06"/>
<text xml:space="preserve" text-anchor="start" x="178.41" y="-127.22" font-family="Consolas" font-size="12.00">&#45; id : IdType</text>
<text xml:space="preserve" text-anchor="start" x="178.41" y="-112.82" font-family="Consolas" font-size="12.00">&#45; name : string</text>
<text xml:space="preserve" text-anchor="start" x="178.41" y="-98.42" font-family="Consolas" font-size="12.00">&#45; paperId : IdType</text>
<text xml:space="preserve" text-anchor="start" x="178.41" y="-84.02" font-family="Consolas" font-size="12.00">&#45; content : string</text>
<text xml:space="preserve" text-anchor="start" x="178.41" y="-69.62" font-family="Consolas" font-size="12.00">&#45; filePath : string</text>
<polyline fill="none" stroke="#475569" points="171.21,-60.98 357.15,-60.98"/>
<text xml:space="preserve" text-anchor="start" x="178.41" y="-45.14" font-family="Consolas" font-size="12.00">+ getters/setters</text>
<text xml:space="preserve" text-anchor="start" x="178.41" y="-30.74" font-family="Consolas" font-size="12.00">+ serialize() : string</text>
<text xml:space="preserve" text-anchor="start" x="178.41" y="-16.34" font-family="Consolas" font-size="12.00">+ deserialize(data) : void</text>
</g>
<!-- Serializable&#45;&gt;Attachment -->
<g id="edge3" class="edge">
<title>Serializable&#45;&gt;Attachment</title>
<path fill="none" stroke="#64748b" stroke-dasharray="5,2" d="M106.87,-857.47C93.72,-826.25 76.8,-780.52 70.18,-738.52 34.92,-514.98 37.54,-444.17 114.18,-231.24 120.19,-214.53 123.57,-210.68 135.18,-197.24 138.49,-193.41 149.43,-183.71 163.63,-171.61"/>
<polygon fill="none" stroke="#64748b" points="165.41,-173.77 169.7,-166.46 161.78,-169.5 165.41,-173.77"/>
</g>
<!-- Catalog -->
<g id="node5" class="node">
<title>Catalog</title>
<path fill="#f8fafc" stroke="#475569" d="M117.91,-549.38C117.91,-549.38 286.44,-549.38 286.44,-549.38 292.44,-549.38 298.44,-555.38 298.44,-561.38 298.44,-561.38 298.44,-726.02 298.44,-726.02 298.44,-732.02 292.44,-738.02 286.44,-738.02 286.44,-738.02 117.91,-738.02 117.91,-738.02 111.91,-738.02 105.91,-732.02 105.91,-726.02 105.91,-726.02 105.91,-561.38 105.91,-561.38 105.91,-555.38 111.91,-549.38 117.91,-549.38"/>
<text xml:space="preserve" text-anchor="middle" x="202.18" y="-722.18" font-family="Consolas" font-size="12.00">Catalog</text>
<polyline fill="none" stroke="#475569" points="105.91,-713.54 298.44,-713.54"/>
<text xml:space="preserve" text-anchor="start" x="113.11" y="-697.7" font-family="Consolas" font-size="12.00">&#45; id : IdType</text>
<text xml:space="preserve" text-anchor="start" x="113.11" y="-683.3" font-family="Consolas" font-size="12.00">&#45; name : string</text>
<text xml:space="preserve" text-anchor="start" x="113.11" y="-668.9" font-family="Consolas" font-size="12.00">&#45; level : int</text>
<text xml:space="preserve" text-anchor="start" x="113.11" y="-654.5" font-family="Consolas" font-size="12.00">&#45; parentId : IdType</text>
<text xml:space="preserve" text-anchor="start" x="113.11" y="-640.1" font-family="Consolas" font-size="12.00">&#45; childIds : vector&lt;IdType&gt;</text>
<text xml:space="preserve" text-anchor="start" x="113.11" y="-625.7" font-family="Consolas" font-size="12.00">&#45; paperIds : vector&lt;IdType&gt;</text>
<polyline fill="none" stroke="#475569" points="105.91,-617.06 298.44,-617.06"/>
<text xml:space="preserve" text-anchor="start" x="113.11" y="-601.22" font-family="Consolas" font-size="12.00">+ add/removeChildId()</text>
<text xml:space="preserve" text-anchor="start" x="113.11" y="-586.82" font-family="Consolas" font-size="12.00">+ add/removePaperId()</text>
<text xml:space="preserve" text-anchor="start" x="113.11" y="-572.42" font-family="Consolas" font-size="12.00">+ isRoot() : bool</text>
<text xml:space="preserve" text-anchor="start" x="113.11" y="-558.02" font-family="Consolas" font-size="12.00">+ serialize()/deserialize()</text>
</g>
<!-- Serializable&#45;&gt;Catalog -->
<g id="edge4" class="edge">
<title>Serializable&#45;&gt;Catalog</title>
<path fill="none" stroke="#64748b" stroke-dasharray="5,2" d="M136.11,-857.17C145.23,-827.82 158.26,-785.93 170.34,-747.09"/>
<polygon fill="none" stroke="#64748b" points="172.91,-748.25 172.61,-739.78 167.56,-746.59 172.91,-748.25"/>
</g>
<!-- Paper&#45;&gt;Author -->
<g id="edge9" class="edge">
<title>Paper&#45;&gt;Author</title>
<path fill="none" stroke="#64748b" d="M352.12,-247.1C373.63,-225.39 395.91,-202.91 416.7,-181.93"/>
<polygon fill="#64748b" stroke="#64748b" points="418.69,-183.91 422.33,-176.25 414.71,-179.96 418.69,-183.91"/>
<text xml:space="preserve" text-anchor="middle" x="428.49" y="-200.24" font-family="Microsoft YaHei" font-size="10.00"> authorIds &#160;*..*</text>
</g>
<!-- Paper&#45;&gt;Attachment -->
<g id="edge10" class="edge">
<title>Paper&#45;&gt;Attachment</title>
<path fill="none" stroke="#64748b" d="M251.05,-231.62C252.71,-213.54 254.39,-195.31 255.96,-178.19"/>
<polygon fill="none" stroke="#64748b" points="255.96,-178.14 253.21,-173.07 256.84,-168.58 259.59,-173.65 255.96,-178.14"/>
<text xml:space="preserve" text-anchor="middle" x="293.21" y="-200.24" font-family="Microsoft YaHei" font-size="10.00"> attachmentIds &#160;1..*</text>
</g>
<!-- Source -->
<g id="node6" class="node">
<title>Source</title>
<path fill="#f1f5f9" stroke="#475569" d="M12,-55.94C12,-55.94 134.35,-55.94 134.35,-55.94 140.35,-55.94 146.35,-61.94 146.35,-67.94 146.35,-67.94 146.35,-107.3 146.35,-107.3 146.35,-113.3 140.35,-119.3 134.35,-119.3 134.35,-119.3 12,-119.3 12,-119.3 6,-119.3 0,-113.3 0,-107.3 0,-107.3 0,-67.94 0,-67.94 0,-61.94 6,-55.94 12,-55.94"/>
<text xml:space="preserve" text-anchor="middle" x="73.18" y="-103.46" font-family="Consolas" font-size="12.00">Source</text>
<text xml:space="preserve" text-anchor="middle" x="73.18" y="-89.06" font-family="Consolas" font-size="12.00">&lt;external abstract&gt;</text>
<polyline fill="none" stroke="#475569" points="0,-80.42 146.35,-80.42"/>
<text xml:space="preserve" text-anchor="start" x="7.2" y="-64.58" font-family="Consolas" font-size="12.00">+ getType() : string</text>
</g>
<!-- Paper&#45;&gt;Source -->
<g id="edge11" class="edge">
<title>Paper&#45;&gt;Source</title>
<path fill="none" stroke="#64748b" stroke-dasharray="5,2" d="M160.31,-231.62C137.16,-193.63 113.59,-154.94 96.81,-127.4"/>
<polygon fill="#64748b" stroke="#64748b" points="99.38,-126.25 92.83,-120.87 94.6,-129.16 99.38,-126.25"/>
<text xml:space="preserve" text-anchor="middle" x="164.7" y="-200.24" font-family="Microsoft YaHei" font-size="10.00"> sourceId</text>
</g>
<!-- Catalog&#45;&gt;Paper -->
<g id="edge12" class="edge">
<title>Catalog&#45;&gt;Paper</title>
<path fill="none" stroke="#64748b" d="M214.55,-549.2C216.55,-534.06 218.66,-518.12 220.77,-502.18"/>
<polygon fill="#64748b" stroke="#64748b" points="223.54,-502.61 221.81,-494.31 217.99,-501.87 223.54,-502.61"/>
<text xml:space="preserve" text-anchor="middle" x="246.93" y="-517.88" font-family="Microsoft YaHei" font-size="10.00"> paperIds &#160;*..*</text>
</g>
<!-- Catalog&#45;&gt;Catalog -->
<g id="edge13" class="edge">
<title>Catalog&#45;&gt;Catalog</title>
<path fill="none" stroke="#64748b" d="M298.74,-664.7C313.45,-661.49 323.44,-654.49 323.44,-643.7 323.44,-635.27 317.35,-629.15 307.66,-625.35"/>
<polygon fill="#64748b" stroke="#64748b" points="308.65,-622.72 300.19,-623.13 307.06,-628.09 308.65,-622.72"/>
<text xml:space="preserve" text-anchor="middle" x="357.46" y="-640.7" font-family="Microsoft YaHei" font-size="10.00"> parent / children</text>
</g>
<!-- LibraryManager -->
<g id="node7" class="node">
<title>LibraryManager</title>
<path fill="#fef3c7" stroke="#475569" d="M406.31,-795.02C406.31,-795.02 588.04,-795.02 588.04,-795.02 594.04,-795.02 600.04,-801.02 600.04,-807.02 600.04,-807.02 600.04,-986.06 600.04,-986.06 600.04,-992.06 594.04,-998.06 588.04,-998.06 588.04,-998.06 406.31,-998.06 406.31,-998.06 400.31,-998.06 394.31,-992.06 394.31,-986.06 394.31,-986.06 394.31,-807.02 394.31,-807.02 394.31,-801.02 400.31,-795.02 406.31,-795.02"/>
<text xml:space="preserve" text-anchor="middle" x="497.18" y="-982.22" font-family="Consolas" font-size="12.00">LibraryManager</text>
<text xml:space="preserve" text-anchor="middle" x="497.18" y="-967.82" font-family="Consolas" font-size="12.00">&lt;singleton&gt;</text>
<polyline fill="none" stroke="#475569" points="394.31,-959.18 600.04,-959.18"/>
<text xml:space="preserve" text-anchor="start" x="401.51" y="-943.34" font-family="Consolas" font-size="12.00">&#45; authors : map</text>
<text xml:space="preserve" text-anchor="start" x="401.51" y="-928.94" font-family="Consolas" font-size="12.00">&#45; papers : map</text>
<text xml:space="preserve" text-anchor="start" x="401.51" y="-914.54" font-family="Consolas" font-size="12.00">&#45; attachments : map</text>
<text xml:space="preserve" text-anchor="start" x="401.51" y="-900.14" font-family="Consolas" font-size="12.00">&#45; catalogs : map</text>
<text xml:space="preserve" text-anchor="start" x="401.51" y="-885.74" font-family="Consolas" font-size="12.00">&#45; nextId counters</text>
<polyline fill="none" stroke="#475569" points="394.31,-877.1 600.04,-877.1"/>
<text xml:space="preserve" text-anchor="start" x="401.51" y="-861.26" font-family="Consolas" font-size="12.00">+ getInstance()</text>
<text xml:space="preserve" text-anchor="start" x="401.51" y="-846.86" font-family="Consolas" font-size="12.00">+ add/remove/update/find...()</text>
<text xml:space="preserve" text-anchor="start" x="401.51" y="-832.46" font-family="Consolas" font-size="12.00">+ searchPapers...()</text>
<text xml:space="preserve" text-anchor="start" x="401.51" y="-818.06" font-family="Consolas" font-size="12.00">+ getPapersInCatalog()</text>
<text xml:space="preserve" text-anchor="start" x="401.51" y="-803.66" font-family="Consolas" font-size="12.00">+ save/load/import...()</text>
</g>
<!-- LibraryManager&#45;&gt;Author -->
<g id="edge5" class="edge">
<title>LibraryManager&#45;&gt;Author</title>
<path fill="none" stroke="#64748b" d="M570.01,-794.57C573.51,-787.3 576.62,-779.92 579.18,-772.52 662.65,-530.85 658.66,-440.25 579.18,-197.24 577.8,-193.04 576.23,-188.85 574.49,-184.68"/>
<polygon fill="#64748b" stroke="#64748b" points="574.45,-184.6 569.57,-181.53 570.52,-175.84 575.41,-178.91 574.45,-184.6"/>
<text xml:space="preserve" text-anchor="middle" x="658.28" y="-517.88" font-family="Microsoft YaHei" font-size="10.00"> manages</text>
</g>
<!-- LibraryManager&#45;&gt;Paper -->
<g id="edge6" class="edge">
<title>LibraryManager&#45;&gt;Paper</title>
<path fill="none" stroke="#64748b" d="M479.9,-794.87C464.86,-723.26 438.81,-626.42 397.18,-548.88 386.31,-528.65 372.96,-508.65 358.67,-489.7"/>
<polygon fill="#64748b" stroke="#64748b" points="358.66,-489.68 353.2,-487.82 352.81,-482.07 358.27,-483.93 358.66,-489.68"/>
<text xml:space="preserve" text-anchor="middle" x="485.17" y="-640.7" font-family="Microsoft YaHei" font-size="10.00"> manages</text>
</g>
<!-- LibraryManager&#45;&gt;Attachment -->
<g id="edge7" class="edge">
<title>LibraryManager&#45;&gt;Attachment</title>
<path fill="none" stroke="#64748b" d="M528.27,-794.72C567.96,-643.57 614.84,-358.77 464.18,-197.24 439.02,-170.27 417.43,-191.17 384.18,-175.24 378.32,-172.44 372.45,-169.34 366.63,-166.04"/>
<polygon fill="#64748b" stroke="#64748b" points="366.59,-166.01 360.83,-166.34 358.31,-161.15 364.07,-160.82 366.59,-166.01"/>
<text xml:space="preserve" text-anchor="middle" x="586.49" y="-517.88" font-family="Microsoft YaHei" font-size="10.00"> manages</text>
</g>
<!-- LibraryManager&#45;&gt;Catalog -->
<g id="edge8" class="edge">
<title>LibraryManager&#45;&gt;Catalog</title>
<path fill="none" stroke="#64748b" d="M394,-807.81C365.75,-783.79 335.11,-757.74 306.78,-733.65"/>
<polygon fill="#64748b" stroke="#64748b" points="306.86,-733.71 301.13,-733.04 299.55,-727.49 305.28,-728.17 306.86,-733.71"/>
<text xml:space="preserve" text-anchor="middle" x="368.42" y="-763.52" font-family="Microsoft YaHei" font-size="10.00"> manages</text>
</g>
</g>
</svg>
