<?xml version="1.0" encoding="UTF-8" standalone="no"?>
<!DOCTYPE svg PUBLIC "-//W3C//DTD SVG 1.1//EN"
 "http://www.w3.org/Graphics/SVG/1.1/DTD/svg11.dtd">
<!-- Generated by graphviz version 14.1.3 (20260303.0454)
 -->
<!-- Title: ShaoUML Pages: 1 -->
<svg width="758pt" height="659pt"
 viewBox="0.00 0.00 758.00 659.00" xmlns="http://www.w3.org/2000/svg" xmlns:xlink="http://www.w3.org/1999/xlink">
<g id="graph0" class="graph" transform="scale(1 1) rotate(0) translate(18 641.32)">
<title>ShaoUML</title>
<polygon fill="white" stroke="none" points="-18,18 -18,-641.32 740.46,-641.32 740.46,18 -18,18"/>
<!-- Serializable -->
<g id="node1" class="node">
<title>Serializable</title>
<path fill="#e0f2fe" stroke="#475569" d="M216.9,-482.42C216.9,-482.42 378.84,-482.42 378.84,-482.42 384.84,-482.42 390.84,-488.42 390.84,-494.42 390.84,-494.42 390.84,-548.18 390.84,-548.18 390.84,-554.18 384.84,-560.18 378.84,-560.18 378.84,-560.18 216.9,-560.18 216.9,-560.18 210.9,-560.18 204.9,-554.18 204.9,-548.18 204.9,-548.18 204.9,-494.42 204.9,-494.42 204.9,-488.42 210.9,-482.42 216.9,-482.42"/>
<text xml:space="preserve" text-anchor="middle" x="297.87" y="-544.34" font-family="Consolas" font-size="12.00">Serializable</text>
<text xml:space="preserve" text-anchor="middle" x="297.87" y="-529.94" font-family="Consolas" font-size="12.00">&lt;interface&gt;</text>
<polyline fill="none" stroke="#475569" points="204.9,-521.3 390.84,-521.3"/>
<text xml:space="preserve" text-anchor="start" x="212.1" y="-505.46" font-family="Consolas" font-size="12.00">+ serialize() : string</text>
<text xml:space="preserve" text-anchor="start" x="212.1" y="-491.06" font-family="Consolas" font-size="12.00">+ deserialize(data) : void</text>
</g>
<!-- Source -->
<g id="node2" class="node">
<title>Source</title>
<path fill="#dcfce7" stroke="#475569" d="M213.6,-159.74C213.6,-159.74 382.13,-159.74 382.13,-159.74 388.13,-159.74 394.13,-165.74 394.13,-171.74 394.13,-171.74 394.13,-350.78 394.13,-350.78 394.13,-356.78 388.13,-362.78 382.13,-362.78 382.13,-362.78 213.6,-362.78 213.6,-362.78 207.6,-362.78 201.6,-356.78 201.6,-350.78 201.6,-350.78 201.6,-171.74 201.6,-171.74 201.6,-165.74 207.6,-159.74 213.6,-159.74"/>
<text xml:space="preserve" text-anchor="middle" x="297.87" y="-346.94" font-family="Consolas" font-size="12.00">Source</text>
<text xml:space="preserve" text-anchor="middle" x="297.87" y="-332.54" font-family="Consolas" font-size="12.00">&lt;abstract&gt;</text>
<polyline fill="none" stroke="#475569" points="201.6,-323.9 394.13,-323.9"/>
<text xml:space="preserve" text-anchor="start" x="208.8" y="-308.06" font-family="Consolas" font-size="12.00"># id : IdType</text>
<text xml:space="preserve" text-anchor="start" x="208.8" y="-293.66" font-family="Consolas" font-size="12.00"># shortName : string</text>
<text xml:space="preserve" text-anchor="start" x="208.8" y="-279.26" font-family="Consolas" font-size="12.00"># fullName : string</text>
<text xml:space="preserve" text-anchor="start" x="208.8" y="-264.86" font-family="Consolas" font-size="12.00"># field : string</text>
<text xml:space="preserve" text-anchor="start" x="208.8" y="-250.46" font-family="Consolas" font-size="12.00"># publisher : string</text>
<text xml:space="preserve" text-anchor="start" x="208.8" y="-236.06" font-family="Consolas" font-size="12.00"># publisherAddress : string</text>
<text xml:space="preserve" text-anchor="start" x="208.8" y="-221.66" font-family="Consolas" font-size="12.00"># retrievalType : string</text>
<text xml:space="preserve" text-anchor="start" x="208.8" y="-207.26" font-family="Consolas" font-size="12.00"># remark : string</text>
<polyline fill="none" stroke="#475569" points="201.6,-198.62 394.13,-198.62"/>
<text xml:space="preserve" text-anchor="start" x="208.8" y="-182.78" font-family="Consolas" font-size="12.00">+ getType() : string</text>
<text xml:space="preserve" text-anchor="start" x="208.8" y="-168.38" font-family="Consolas" font-size="12.00">+ getters/setters</text>
</g>
<!-- Serializable&#45;&gt;Source -->
<g id="edge1" class="edge">
<title>Serializable&#45;&gt;Source</title>
<path fill="none" stroke="#64748b" stroke-dasharray="5,2" d="M297.87,-481.95C297.87,-452.9 297.87,-411.45 297.87,-372.37"/>
<polygon fill="none" stroke="#64748b" points="300.67,-372.53 297.87,-364.53 295.07,-372.53 300.67,-372.53"/>
</g>
<!-- AuthorCatalog -->
<g id="node5" class="node">
<title>AuthorCatalog</title>
<path fill="#f8fafc" stroke="#475569" d="M442.3,-159.74C442.3,-159.74 617.43,-159.74 617.43,-159.74 623.43,-159.74 629.43,-165.74 629.43,-171.74 629.43,-171.74 629.43,-350.78 629.43,-350.78 629.43,-356.78 623.43,-362.78 617.43,-362.78 617.43,-362.78 442.3,-362.78 442.3,-362.78 436.3,-362.78 430.3,-356.78 430.3,-350.78 430.3,-350.78 430.3,-171.74 430.3,-171.74 430.3,-165.74 436.3,-159.74 442.3,-159.74"/>
<text xml:space="preserve" text-anchor="middle" x="529.87" y="-346.94" font-family="Consolas" font-size="12.00">AuthorCatalog</text>
<polyline fill="none" stroke="#475569" points="430.3,-338.3 629.43,-338.3"/>
<text xml:space="preserve" text-anchor="start" x="437.5" y="-322.46" font-family="Consolas" font-size="12.00">&#45; id : IdType</text>
<text xml:space="preserve" text-anchor="start" x="437.5" y="-308.06" font-family="Consolas" font-size="12.00">&#45; name : string</text>
<text xml:space="preserve" text-anchor="start" x="437.5" y="-293.66" font-family="Consolas" font-size="12.00">&#45; level : int</text>
<text xml:space="preserve" text-anchor="start" x="437.5" y="-279.26" font-family="Consolas" font-size="12.00">&#45; description : string</text>
<text xml:space="preserve" text-anchor="start" x="437.5" y="-264.86" font-family="Consolas" font-size="12.00">&#45; parentId : IdType</text>
<text xml:space="preserve" text-anchor="start" x="437.5" y="-250.46" font-family="Consolas" font-size="12.00">&#45; childIds : vector&lt;IdType&gt;</text>
<text xml:space="preserve" text-anchor="start" x="437.5" y="-236.06" font-family="Consolas" font-size="12.00">&#45; authorIds : vector&lt;IdType&gt;</text>
<polyline fill="none" stroke="#475569" points="430.3,-227.42 629.43,-227.42"/>
<text xml:space="preserve" text-anchor="start" x="437.5" y="-211.58" font-family="Consolas" font-size="12.00">+ add/removeChildId()</text>
<text xml:space="preserve" text-anchor="start" x="437.5" y="-197.18" font-family="Consolas" font-size="12.00">+ add/removeAuthorId()</text>
<text xml:space="preserve" text-anchor="start" x="437.5" y="-182.78" font-family="Consolas" font-size="12.00">+ isRoot() : bool</text>
<text xml:space="preserve" text-anchor="start" x="437.5" y="-168.38" font-family="Consolas" font-size="12.00">+ serialize()/deserialize()</text>
</g>
<!-- Serializable&#45;&gt;AuthorCatalog -->
<g id="edge2" class="edge">
<title>Serializable&#45;&gt;AuthorCatalog</title>
<path fill="none" stroke="#64748b" stroke-dasharray="5,2" d="M320.99,-482.17C338.8,-454.12 364.86,-415.73 391.87,-385.28 401.57,-374.34 412.18,-363.4 423.08,-352.81"/>
<polygon fill="none" stroke="#64748b" points="424.98,-354.87 428.81,-347.31 421.1,-350.83 424.98,-354.87"/>
</g>
<!-- Journal -->
<g id="node3" class="node">
<title>Journal</title>
<path fill="#f8fafc" stroke="#475569" d="M12,-0.5C12,-0.5 193.73,-0.5 193.73,-0.5 199.73,-0.5 205.73,-6.5 205.73,-12.5 205.73,-12.5 205.73,-90.74 205.73,-90.74 205.73,-96.74 199.73,-102.74 193.73,-102.74 193.73,-102.74 12,-102.74 12,-102.74 6,-102.74 0,-96.74 0,-90.74 0,-90.74 0,-12.5 0,-12.5 0,-6.5 6,-0.5 12,-0.5"/>
<text xml:space="preserve" text-anchor="middle" x="102.87" y="-86.9" font-family="Consolas" font-size="12.00">Journal</text>
<polyline fill="none" stroke="#475569" points="0,-78.26 205.73,-78.26"/>
<text xml:space="preserve" text-anchor="start" x="7.2" y="-62.42" font-family="Consolas" font-size="12.00">&#45; latestImpactFactor : double</text>
<polyline fill="none" stroke="#475569" points="0,-53.78 205.73,-53.78"/>
<text xml:space="preserve" text-anchor="start" x="7.2" y="-37.94" font-family="Consolas" font-size="12.00">+ getType() : string</text>
<text xml:space="preserve" text-anchor="start" x="7.2" y="-23.54" font-family="Consolas" font-size="12.00">+ get/setImpactFactor()</text>
<text xml:space="preserve" text-anchor="start" x="7.2" y="-9.14" font-family="Consolas" font-size="12.00">+ serialize()/deserialize()</text>
</g>
<!-- Source&#45;&gt;Journal -->
<g id="edge3" class="edge">
<title>Source&#45;&gt;Journal</title>
<path fill="none" stroke="#64748b" d="M203.22,-159.48C187.32,-142.55 171.31,-125.5 156.9,-110.16"/>
<polygon fill="none" stroke="#64748b" points="158.95,-108.25 151.43,-104.33 154.87,-112.08 158.95,-108.25"/>
</g>
<!-- Conference -->
<g id="node4" class="node">
<title>Conference</title>
<path fill="#f8fafc" stroke="#475569" d="M242.6,-0.5C242.6,-0.5 411.13,-0.5 411.13,-0.5 417.13,-0.5 423.13,-6.5 423.13,-12.5 423.13,-12.5 423.13,-90.74 423.13,-90.74 423.13,-96.74 417.13,-102.74 411.13,-102.74 411.13,-102.74 242.6,-102.74 242.6,-102.74 236.6,-102.74 230.6,-96.74 230.6,-90.74 230.6,-90.74 230.6,-12.5 230.6,-12.5 230.6,-6.5 236.6,-0.5 242.6,-0.5"/>
<text xml:space="preserve" text-anchor="middle" x="326.87" y="-86.9" font-family="Consolas" font-size="12.00">Conference</text>
<polyline fill="none" stroke="#475569" points="230.6,-78.26 423.13,-78.26"/>
<text xml:space="preserve" text-anchor="start" x="237.8" y="-62.42" font-family="Consolas" font-size="12.00">&#45; meetingAddress : string</text>
<polyline fill="none" stroke="#475569" points="230.6,-53.78 423.13,-53.78"/>
<text xml:space="preserve" text-anchor="start" x="237.8" y="-37.94" font-family="Consolas" font-size="12.00">+ getType() : string</text>
<text xml:space="preserve" text-anchor="start" x="237.8" y="-23.54" font-family="Consolas" font-size="12.00">+ get/setMeetingAddress()</text>
<text xml:space="preserve" text-anchor="start" x="237.8" y="-9.14" font-family="Consolas" font-size="12.00">+ serialize()/deserialize()</text>
</g>
<!-- Source&#45;&gt;Conference -->
<g id="edge4" class="edge">
<title>Source&#45;&gt;Conference</title>
<path fill="none" stroke="#64748b" d="M311.94,-159.48C314.2,-143.31 316.47,-127.04 318.54,-112.24"/>
<polygon fill="none" stroke="#64748b" points="321.25,-113.04 319.59,-104.73 315.71,-112.27 321.25,-113.04"/>
</g>
<!-- AuthorCatalog&#45;&gt;AuthorCatalog -->
<g id="edge7" class="edge">
<title>AuthorCatalog&#45;&gt;AuthorCatalog</title>
<path fill="none" stroke="#64748b" d="M629.81,-283.32C644.51,-279.85 654.43,-272.5 654.43,-261.26 654.43,-252.48 648.38,-246.07 638.71,-242.04"/>
<polygon fill="#64748b" stroke="#64748b" points="639.72,-239.42 631.25,-239.66 638.02,-244.75 639.72,-239.42"/>
<text xml:space="preserve" text-anchor="middle" x="688.45" y="-258.26" font-family="Microsoft YaHei" font-size="10.00"> parent / children</text>
</g>
<!-- Author -->
<g id="node6" class="node">
<title>Author</title>
<path fill="#f1f5f9" stroke="#475569" d="M478.59,-12.74C478.59,-12.74 581.15,-12.74 581.15,-12.74 587.15,-12.74 593.15,-18.74 593.15,-24.74 593.15,-24.74 593.15,-78.5 593.15,-78.5 593.15,-84.5 587.15,-90.5 581.15,-90.5 581.15,-90.5 478.59,-90.5 478.59,-90.5 472.59,-90.5 466.59,-84.5 466.59,-78.5 466.59,-78.5 466.59,-24.74 466.59,-24.74 466.59,-18.74 472.59,-12.74 478.59,-12.74"/>
<text xml:space="preserve" text-anchor="middle" x="529.87" y="-74.66" font-family="Consolas" font-size="12.00">Author</text>
<text xml:space="preserve" text-anchor="middle" x="529.87" y="-60.26" font-family="Consolas" font-size="12.00">&lt;external entity&gt;</text>
<polyline fill="none" stroke="#475569" points="466.59,-51.62 593.15,-51.62"/>
<text xml:space="preserve" text-anchor="start" x="473.79" y="-35.78" font-family="Consolas" font-size="12.00">&#45; id : IdType</text>
<text xml:space="preserve" text-anchor="start" x="473.79" y="-21.38" font-family="Consolas" font-size="12.00">&#45; name : string</text>
</g>
<!-- AuthorCatalog&#45;&gt;Author -->
<g id="edge8" class="edge">
<title>AuthorCatalog&#45;&gt;Author</title>
<path fill="none" stroke="#64748b" d="M529.87,-159.48C529.87,-138.54 529.87,-117.43 529.87,-99.57"/>
<polygon fill="#64748b" stroke="#64748b" points="532.67,-100.06 529.87,-92.06 527.07,-100.06 532.67,-100.06"/>
<text xml:space="preserve" text-anchor="middle" x="560" y="-128.24" font-family="Microsoft YaHei" font-size="10.00"> authorIds &#160;*..*</text>
</g>
<!-- Paper -->
<g id="node7" class="node">
<title>Paper</title>
<path fill="#f1f5f9" stroke="#475569" d="M51.99,-489.62C51.99,-489.62 167.74,-489.62 167.74,-489.62 173.74,-489.62 179.74,-495.62 179.74,-501.62 179.74,-501.62 179.74,-540.98 179.74,-540.98 179.74,-546.98 173.74,-552.98 167.74,-552.98 167.74,-552.98 51.99,-552.98 51.99,-552.98 45.99,-552.98 39.99,-546.98 39.99,-540.98 39.99,-540.98 39.99,-501.62 39.99,-501.62 39.99,-495.62 45.99,-489.62 51.99,-489.62"/>
<text xml:space="preserve" text-anchor="middle" x="109.87" y="-537.14" font-family="Consolas" font-size="12.00">Paper</text>
<text xml:space="preserve" text-anchor="middle" x="109.87" y="-522.74" font-family="Consolas" font-size="12.00">&lt;external entity&gt;</text>
<polyline fill="none" stroke="#475569" points="39.99,-514.1 179.74,-514.1"/>
<text xml:space="preserve" text-anchor="start" x="47.19" y="-498.26" font-family="Consolas" font-size="12.00">&#45; sourceId : IdType</text>
</g>
<!-- Paper&#45;&gt;Source -->
<g id="edge9" class="edge">
<title>Paper&#45;&gt;Source</title>
<path fill="none" stroke="#64748b" stroke-dasharray="5,2" d="M132.54,-489.17C154.01,-459.71 187.51,-413.72 218.76,-370.83"/>
<polygon fill="#64748b" stroke="#64748b" points="221.03,-372.48 223.47,-364.37 216.5,-369.18 221.03,-372.48"/>
<text xml:space="preserve" text-anchor="middle" x="222.33" y="-388.28" font-family="Microsoft YaHei" font-size="10.00"> sourceId</text>
</g>
<!-- LibraryManager -->
<g id="node8" class="node">
<title>LibraryManager</title>
<path fill="#fef3c7" stroke="#475569" d="M427.82,-419.78C427.82,-419.78 701.92,-419.78 701.92,-419.78 707.92,-419.78 713.92,-425.78 713.92,-431.78 713.92,-431.78 713.92,-610.82 713.92,-610.82 713.92,-616.82 707.92,-622.82 701.92,-622.82 701.92,-622.82 427.82,-622.82 427.82,-622.82 421.82,-622.82 415.82,-616.82 415.82,-610.82 415.82,-610.82 415.82,-431.78 415.82,-431.78 415.82,-425.78 421.82,-419.78 427.82,-419.78"/>
<text xml:space="preserve" text-anchor="middle" x="564.87" y="-606.98" font-family="Consolas" font-size="12.00">LibraryManager</text>
<text xml:space="preserve" text-anchor="middle" x="564.87" y="-592.58" font-family="Consolas" font-size="12.00">&lt;singleton&gt;</text>
<polyline fill="none" stroke="#475569" points="415.82,-583.94 713.92,-583.94"/>
<text xml:space="preserve" text-anchor="start" x="423.02" y="-568.1" font-family="Consolas" font-size="12.00">&#45; sources : map&lt;IdType, shared_ptr&lt;Source&gt;&gt;</text>
<text xml:space="preserve" text-anchor="start" x="423.02" y="-553.7" font-family="Consolas" font-size="12.00">&#45; authorCatalogs : map</text>
<text xml:space="preserve" text-anchor="start" x="423.02" y="-539.3" font-family="Consolas" font-size="12.00">&#45; nextSourceId : IdType</text>
<text xml:space="preserve" text-anchor="start" x="423.02" y="-524.9" font-family="Consolas" font-size="12.00">&#45; nextAuthorCatalogId : IdType</text>
<polyline fill="none" stroke="#475569" points="415.82,-516.26 713.92,-516.26"/>
<text xml:space="preserve" text-anchor="start" x="423.02" y="-500.42" font-family="Consolas" font-size="12.00">+ add/remove/update/findSource()</text>
<text xml:space="preserve" text-anchor="start" x="423.02" y="-486.02" font-family="Consolas" font-size="12.00">+ add/remove/update/findAuthorCatalog()</text>
<text xml:space="preserve" text-anchor="start" x="423.02" y="-471.62" font-family="Consolas" font-size="12.00">+ add/removeAuthorToCatalog()</text>
<text xml:space="preserve" text-anchor="start" x="423.02" y="-457.22" font-family="Consolas" font-size="12.00">+ getAuthorsInCatalog()</text>
<text xml:space="preserve" text-anchor="start" x="423.02" y="-442.82" font-family="Consolas" font-size="12.00">+ getPapersBySource()</text>
<text xml:space="preserve" text-anchor="start" x="423.02" y="-428.42" font-family="Consolas" font-size="12.00">+ save/load/import...()</text>
</g>
<!-- LibraryManager&#45;&gt;Source -->
<g id="edge5" class="edge">
<title>LibraryManager&#45;&gt;Source</title>
<path fill="none" stroke="#64748b" d="M460.49,-419.43C441.25,-400.83 421.16,-381.42 401.93,-362.84"/>
<polygon fill="#64748b" stroke="#64748b" points="401.88,-362.78 396.2,-361.74 394.97,-356.11 400.65,-357.14 401.88,-362.78"/>
<text xml:space="preserve" text-anchor="middle" x="474.96" y="-388.28" font-family="Microsoft YaHei" font-size="10.00"> polymorphic manage</text>
</g>
<!-- LibraryManager&#45;&gt;AuthorCatalog -->
<g id="edge6" class="edge">
<title>LibraryManager&#45;&gt;AuthorCatalog</title>
<path fill="none" stroke="#64748b" d="M551.18,-419.43C549.14,-404.38 547.03,-388.8 544.96,-373.55"/>
<polygon fill="#64748b" stroke="#64748b" points="544.95,-373.47 541.13,-369.14 543.66,-363.96 547.48,-368.28 544.95,-373.47"/>
<text xml:space="preserve" text-anchor="middle" x="566.11" y="-388.28" font-family="Microsoft YaHei" font-size="10.00"> manages</text>
</g>
</g>
</svg>
